<svg xmlns="http://www.w3.org/2000/svg" width="36.336" height="19.82" viewBox="0 0 36.336 19.82">
  <g id="car-svgrepo-com" transform="translate(-1 -6)">
    <path id="Path_89121" data-name="Path 89121" d="M25.775,6l4.955,6.607h3.3a3.292,3.292,0,0,1,3.3,3.3v4.955h-3.3a4.955,4.955,0,1,1-9.91,0h-9.91a4.955,4.955,0,0,1-9.91,0H1V15.91a3.292,3.292,0,0,1,3.3-3.3L9.258,6H25.775M16.691,8.477H10.5L7.375,12.607h9.315V8.477m2.477,0v4.129h8.489L24.536,8.477H19.168m-9.91,9.91a2.477,2.477,0,1,0,2.477,2.477,2.474,2.474,0,0,0-2.477-2.477m19.82,0a2.477,2.477,0,1,0,2.477,2.477A2.474,2.474,0,0,0,29.078,18.387Z" transform="translate(0 0)"/>
  </g>
</svg>
