<svg xmlns="http://www.w3.org/2000/svg" width="22.763" height="22.763" viewBox="0 0 22.763 22.763">
  <g id="plane-svgrepo-com" transform="translate(-0.002 0)">
    <path id="Path_89122" data-name="Path 89122" d="M3.083,19.59A3.755,3.755,0,0,1,4.2,17.3L.2,14.77c-.252-.109-.246-.263-.1-.445L.95,13.6a.605.605,0,0,1,.493-.087l4.931.834L10.483,9.9.891,3.411c-.243-.143-.263-.3-.013-.491l1.384-1.1,12.5,3.514L18.46,1.38C19.7.308,20.9-.172,21.828.056a.957.957,0,0,1,.847.756c.306.937-.169,2.2-1.289,3.494L17.436,8,20.95,20.5l-1.1,1.384c-.187.248-.348.228-.491-.013l-6.491-9.59-4.45,4.107.834,4.931a.6.6,0,0,1-.087.493l-.722.847c-.18.146-.335.152-.445-.1l-2.527-4a3.751,3.751,0,0,1-2.3,1.117c-.069,0-.083-.026-.083-.093Z" transform="translate(0 0)" fill-rule="evenodd"/>
  </g>
</svg>
