<svg xmlns="http://www.w3.org/2000/svg" width="30.878" height="23.134" viewBox="0 0 30.878 23.134" style="fill: #fff;">
  <g id="ship-cruise-holidays-sea-svgrepo-com" transform="translate(0)">
    <path id="Path_89124" data-name="Path 89124" d="M.871,20H29.91a1.1,1.1,0,0,1,.774.29,2.992,2.992,0,0,1,.194.774l-.1.871a7.813,7.813,0,0,1-7.744,6.679H7.841A7.9,7.9,0,0,1,.1,21.936L0,21.065a1.043,1.043,0,0,1,.194-.774A.754.754,0,0,1,.871,20Z" transform="translate(0 -5.481)"/>
    <path id="Path_89125" data-name="Path 89125" d="M6.2,9.84H7.946L7.172,6.162a.753.753,0,0,1,.194-.774A.88.88,0,0,1,8.14,5h3.872a.943.943,0,0,1,.968.774l.774,4.065H15.69l-.774-3.678a.753.753,0,0,1,.194-.774A.88.88,0,0,1,15.884,5h3.872a.943.943,0,0,1,.968.774L21.5,9.84H23.24a2.964,2.964,0,0,1,2.71,1.839l.774,2.033H22.659a.968.968,0,1,0,0,1.936H27.4l.774,1.936H3.3v-4.84A2.852,2.852,0,0,1,6.2,9.84Zm12.874,5.517a.879.879,0,0,0,.678.29.582.582,0,0,0,.387-.1c.1-.1.194-.1.29-.194a.1.1,0,0,1,.1-.1c0-.1.1-.1.1-.194s0-.1.1-.194V14.68a.582.582,0,0,0-.1-.387c0-.1-.1-.194-.194-.29s-.194-.194-.29-.194a1.228,1.228,0,0,0-.581-.1c-.1,0-.1,0-.194.1-.1,0-.1.1-.194.1a.338.338,0,0,1-.194.1c-.1.1-.194.194-.194.29s-.1.29-.1.387A1.56,1.56,0,0,0,19.078,15.357Zm-2.9,0a.879.879,0,0,0,.678.29.582.582,0,0,0,.387-.1c.1-.1.194-.1.29-.194a.1.1,0,0,1,.1-.1c0-.1.1-.1.1-.194s0-.1.1-.194V14.68a.582.582,0,0,0-.1-.387c0-.1-.1-.194-.194-.29s-.194-.194-.29-.194a1.228,1.228,0,0,0-.581-.1c-.1,0-.1,0-.194.1-.1,0-.1.1-.194.1a.338.338,0,0,1-.194.1c-.1.1-.194.194-.194.29s-.1.29-.1.387A1.56,1.56,0,0,0,16.174,15.357Zm-2.9,0a.879.879,0,0,0,.678.29.582.582,0,0,0,.387-.1c.1-.1.194-.1.29-.194a.1.1,0,0,1,.1-.1c0-.1.1-.1.1-.194s0-.1.1-.194V14.68a.582.582,0,0,0-.1-.387c0-.1-.1-.194-.194-.29s-.194-.194-.29-.194a1.228,1.228,0,0,0-.581-.1c-.1,0-.1,0-.194.1-.1,0-.1.1-.194.1a.338.338,0,0,1-.194.1c-.1.1-.194.194-.194.29s-.1.29-.1.387A1.56,1.56,0,0,0,13.27,15.357Z" transform="translate(-0.493 -5)"/>
  </g>
</svg>
